<?xml version="1.0" encoding="UTF-8"?>
<!DOCTYPE svg PUBLIC "-//W3C//DTD SVG 1.1//EN" "http://www.w3.org/Graphics/SVG/1.1/DTD/svg11.dtd">
<svg xmlns="http://www.w3.org/2000/svg" version="1.1" width="184px" height="60px" style="shape-rendering:geometricPrecision; text-rendering:geometricPrecision; image-rendering:optimizeQuality; fill-rule:evenodd; clip-rule:evenodd" xmlns:xlink="http://www.w3.org/1999/xlink">
<g><path style="opacity:0.998" fill="#5ffc29" d="M 133.5,5.5 C 135.764,6.58127 137.931,7.9146 140,9.5C 140,8.16667 140,6.83333 140,5.5C 143.667,8.5 147.333,11.5 151,14.5C 151.483,13.552 151.649,12.552 151.5,11.5C 153.371,11.8588 154.871,12.8588 156,14.5C 158.827,11.6706 160.827,8.33724 162,4.5C 164.172,3.41474 166.172,2.08141 168,0.5C 168.333,3.83333 168.667,7.16667 169,10.5C 171.539,7.93193 174.206,6.26526 177,5.5C 176.135,10.8888 173.468,15.2221 169,18.5C 168.833,19.1667 168.667,19.8333 168.5,20.5C 169.833,22.1667 171.167,23.8333 172.5,25.5C 172.167,26.1667 171.833,26.8333 171.5,27.5C 168.009,25.8682 164.342,24.8682 160.5,24.5C 160.5,31.5 160.5,38.5 160.5,45.5C 132.5,45.5 104.5,45.5 76.5,45.5C 76.5,35.8333 76.5,26.1667 76.5,16.5C 98.8433,16.833 121.177,16.4997 143.5,15.5C 139.812,12.479 136.479,9.14562 133.5,5.5 Z M 145.5,14.5 C 146.289,14.7828 146.956,15.2828 147.5,16C 146.184,16.5281 145.517,16.0281 145.5,14.5 Z M 144.5,21.5 C 145.531,22.355 146.697,23.0217 148,23.5C 149.73,22.3507 151.396,22.3507 153,23.5C 152.92,28.6353 153.753,33.4686 155.5,38C 154.083,40.8262 152.583,40.9928 151,38.5C 150.501,33.8452 150.334,29.1785 150.5,24.5C 149.5,24.5 148.5,24.5 147.5,24.5C 147.2,29.0986 147.533,33.5986 148.5,38C 147.407,39.3654 146.074,39.6987 144.5,39C 144.058,36.5398 144.058,33.8731 144.5,31C 144.419,28.3746 143.752,26.0413 142.5,24C 143.381,23.2917 144.047,22.4584 144.5,21.5 Z M 82.5,22.5 C 85.7247,23.3227 88.8914,23.656 92,23.5C 91.9198,28.6353 92.7532,33.4686 94.5,38C 93.6667,38.8333 92.8333,39.6667 92,40.5C 91.0975,39.2986 89.9308,38.4652 88.5,38C 89.4667,33.5986 89.8,29.0986 89.5,24.5C 88.5,24.5 87.5,24.5 86.5,24.5C 86.2,29.0986 86.5333,33.5986 87.5,38C 86.4071,39.3654 85.0738,39.6987 83.5,39C 83.0576,36.5398 83.0576,33.8731 83.5,31C 83.4188,28.3746 82.7522,26.0413 81.5,24C 82.056,23.6174 82.3893,23.1174 82.5,22.5 Z M 100.5,22.5 C 103.121,23.1211 104.788,24.7877 105.5,27.5C 104.758,28.2868 103.925,28.9535 103,29.5C 101.589,27.3496 100.755,25.0163 100.5,22.5 Z M 111.5,22.5 C 116.809,22.4915 118.809,25.1581 117.5,30.5C 118.662,35.6633 116.662,38.6633 111.5,39.5C 110.446,39.3201 109.446,38.9867 108.5,38.5C 107.339,34.2047 107.172,29.8713 108,25.5C 108.667,24.8333 109.333,24.1667 110,23.5C 110.333,27.8333 110.667,32.1667 111,36.5C 111.414,36.9574 111.914,37.2907 112.5,37.5C 113.927,32.3104 113.593,27.3104 111.5,22.5 Z M 124.5,22.5 C 129.18,22.459 130.013,23.7923 127,26.5C 125.519,25.5291 124.685,24.1958 124.5,22.5 Z M 134.5,22.5 C 139.398,22.3634 141.398,24.8634 140.5,30C 140.881,33.2936 140.048,36.1269 138,38.5C 137.667,34.1667 137.333,29.8333 137,25.5C 136.586,25.0426 136.086,24.7093 135.5,24.5C 133.964,29.391 134.297,34.0576 136.5,38.5C 134.389,39.8485 132.555,39.5152 131,37.5C 130.333,33.5 130.333,29.5 131,25.5C 132.518,24.8366 133.685,23.8366 134.5,22.5 Z M 97.5,23.5 C 99.1234,27.4236 100.123,31.7569 100.5,36.5C 104.113,37.3342 104.279,38.3342 101,39.5C 99.5272,39.0969 98.1939,38.4303 97,37.5C 96.2266,32.7481 96.3932,28.0815 97.5,23.5 Z M 122.5,23.5 C 123.166,27.6845 123.833,32.0178 124.5,36.5C 125.795,37.0983 127.128,37.5983 128.5,38C 125.947,39.9155 123.447,39.7489 121,37.5C 119.966,32.5431 120.466,27.8764 122.5,23.5 Z"/></g>
<g><path style="opacity:0.906" fill="#5eff27" d="M 133.5,5.5 C 132.833,4.16667 132.833,4.16667 133.5,5.5 Z"/></g>
<g><path style="opacity:0.016" fill="#7fbf3f" d="M 151.5,11.5 C 150.833,10.1667 150.833,10.1667 151.5,11.5 Z"/></g>
<g><path style="opacity:0.98" fill="#f9fff8" d="M 26.5,23.5 C 25.7784,23.0825 25.2784,22.4158 25,21.5C 24.6667,22.8333 24.3333,24.1667 24,25.5C 23.5026,22.854 23.3359,20.1873 23.5,17.5C 24.8333,17.5 26.1667,17.5 27.5,17.5C 27.4828,19.5648 27.1495,21.5648 26.5,23.5 Z M 24.5,18.5 C 26.337,18.6395 26.6704,19.3061 25.5,20.5C 24.7025,20.0431 24.3691,19.3764 24.5,18.5 Z"/></g>
<g><path style="opacity:0.993" fill="#fefffe" d="M 29.5,20.5 C 28.4265,19.7494 28.2599,18.7494 29,17.5C 29.4828,18.448 29.6495,19.448 29.5,20.5 Z"/></g>
<g><path style="opacity:0.937" fill="#fefffe" d="M 30.5,20.5 C 30.3505,19.448 30.5172,18.448 31,17.5C 31.7401,18.7494 31.5735,19.7494 30.5,20.5 Z"/></g>
<g><path style="opacity:0.898" fill="#fcfdfc" d="M 33.5,17.5 C 34.6491,17.7911 35.3158,18.6244 35.5,20C 36.125,21.8405 36.2917,23.6739 36,25.5C 35.6924,24.6919 35.1924,24.0253 34.5,23.5C 33.7425,24.8114 32.7425,25.3114 31.5,25C 32.3547,22.5644 33.0213,20.0644 33.5,17.5 Z"/></g>
<g><path style="opacity:1" fill="#e5ffd3" d="M 37.5,17.5 C 38.2679,18.2625 38.7679,19.2625 39,20.5C 39.3333,19.5 39.6667,18.5 40,17.5C 40.6667,20.1667 40.6667,22.8333 40,25.5C 39.3333,21.5 38.6667,21.5 38,25.5C 37.5026,22.854 37.3359,20.1873 37.5,17.5 Z"/></g>
<g><path style="opacity:0.988" fill="#fefffe" d="M 47.5,24.5 C 47.1667,24.5 46.8333,24.5 46.5,24.5C 45.791,25.404 44.791,25.7373 43.5,25.5C 43.5,22.8333 43.5,20.1667 43.5,17.5C 44.8333,17.5 46.1667,17.5 47.5,17.5C 47.5,19.8333 47.5,22.1667 47.5,24.5 Z M 46.5,24.5 C 45.3065,24.0296 44.6399,23.0296 44.5,21.5C 44.8333,20.5 45.1667,19.5 45.5,18.5C 46.4656,20.396 46.7989,22.396 46.5,24.5 Z"/></g>
<g><path style="opacity:0.923" fill="#f5faef" d="M 51.5,23.5 C 50.2652,23.7214 49.2652,24.3881 48.5,25.5C 47.8933,25.3764 47.56,25.0431 47.5,24.5C 47.9819,21.9541 48.9819,19.6208 50.5,17.5C 51.4656,19.396 51.7989,21.396 51.5,23.5 Z"/></g>
<g><path style="opacity:0.891" fill="#fafef8" d="M 58.5,23.5 C 58.631,24.2389 58.4643,24.9056 58,25.5C 56.9563,24.3774 56.2896,23.0441 56,21.5C 55.7811,22.938 55.2811,24.2713 54.5,25.5C 53.0343,22.9787 52.5343,20.312 53,17.5C 54,21.5 55,21.5 56,17.5C 56.3333,17.8333 56.6667,18.1667 57,18.5C 57.1981,20.3817 57.6981,22.0484 58.5,23.5 Z"/></g>
<g><path style="opacity:0.87" fill="#f8fcf6" d="M 63.5,24.5 C 62.588,22.4048 61.4213,20.4048 60,18.5C 59.8019,20.3817 59.3019,22.0484 58.5,23.5C 58.5,21.5 58.5,19.5 58.5,17.5C 60.604,17.2011 62.604,17.5344 64.5,18.5C 63.7376,18.9106 62.7376,19.0773 61.5,19C 64.136,20.4098 64.8026,22.2431 63.5,24.5 Z"/></g>
<g><path style="opacity:0.961" fill="#fefefe" d="M 65.5,17.5 C 66.3138,19.631 66.8138,21.9644 67,24.5C 67.3333,22.1667 67.6667,19.8333 68,17.5C 68.4974,20.146 68.6641,22.8127 68.5,25.5C 67.5,25.5 66.5,25.5 65.5,25.5C 65.5,22.8333 65.5,20.1667 65.5,17.5 Z"/></g>
<g><path style="opacity:0.92" fill="#fefffe" d="M 69.5,17.5 C 70.3764,17.3691 71.0431,17.7025 71.5,18.5C 70.7868,20.7759 70.2868,23.1093 70,25.5C 69.5026,22.854 69.3359,20.1873 69.5,17.5 Z"/></g>
<g><path style="opacity:0.977" fill="#fefefe" d="M 72.5,17.5 C 73.6341,19.9664 73.8007,22.633 73,25.5C 71.3437,22.9474 71.177,20.2808 72.5,17.5 Z"/></g>
<g><path style="opacity:1" fill="#fdfdfd" d="M 29.5,20.5 C 29.8333,20.5 30.1667,20.5 30.5,20.5C 30.1667,27.1667 29.8333,27.1667 29.5,20.5 Z"/></g>
<g><path style="opacity:1" fill="#fefffe" d="M 61.5,24.5 C 60.475,24.1034 60.3083,23.4368 61,22.5C 61.4643,23.0944 61.631,23.7611 61.5,24.5 Z"/></g>
<g><path style="opacity:1" fill="#fefffe" d="M 26.5,23.5 C 27.525,23.8966 27.6917,24.5632 27,25.5C 26.5357,24.9056 26.369,24.2389 26.5,23.5 Z"/></g>
<g><path style="opacity:0.951" fill="#fefefe" d="M 51.5,23.5 C 52.525,23.8966 52.6917,24.5632 52,25.5C 51.5357,24.9056 51.369,24.2389 51.5,23.5 Z"/></g>
<g><path style="opacity:1" fill="#fefffe" d="M 61.5,24.5 C 62.1667,24.5 62.8333,24.5 63.5,24.5C 62.8333,25.8333 62.1667,25.8333 61.5,24.5 Z"/></g>
<g><path style="opacity:1" fill="#5dfe29" d="M 23.5,26.5 C 25.924,26.1924 28.2573,26.5258 30.5,27.5C 31.7653,30.7957 32.9319,34.129 34,37.5C 34.4986,33.8484 34.6653,30.1817 34.5,26.5C 36.5273,26.3379 38.5273,26.5045 40.5,27C 41.8742,29.5829 43.3742,32.0829 45,34.5C 45.4974,31.854 45.6641,29.1873 45.5,26.5C 52.5,26.5 59.5,26.5 66.5,26.5C 66.5,28.5 66.5,30.5 66.5,32.5C 64.8333,32.5 63.1667,32.5 61.5,32.5C 61.5,36.8333 61.5,41.1667 61.5,45.5C 59.5,45.5 57.5,45.5 55.5,45.5C 55.5,41.1667 55.5,36.8333 55.5,32.5C 54.1667,32.5 52.8333,32.5 51.5,32.5C 51.5,36.8333 51.5,41.1667 51.5,45.5C 49.4727,45.6621 47.4727,45.4955 45.5,45C 43.6227,42.7487 42.1227,40.2487 41,37.5C 40.5026,40.146 40.3359,42.8127 40.5,45.5C 37.1501,45.665 33.8168,45.4983 30.5,45C 28.1667,41.6667 25.8333,41.6667 23.5,45C 21.5,45.6667 19.5,45.6667 17.5,45C 20.0009,38.9972 22.0009,32.8306 23.5,26.5 Z"/></g>
<g><path style="opacity:1" fill="#5dff27" d="M 67.5,26.5 C 69.5,26.5 71.5,26.5 73.5,26.5C 73.5,32.8333 73.5,39.1667 73.5,45.5C 71.5,45.5 69.5,45.5 67.5,45.5C 67.5,39.1667 67.5,32.8333 67.5,26.5 Z"/></g>
<g><path style="opacity:1" fill="#61f92a" d="M 33.5,49.5 C 35.4835,49.3832 37.1502,50.0499 38.5,51.5C 37.8555,52.7321 37.6888,54.0654 38,55.5C 36.6667,52.8333 35.3333,52.8333 34,55.5C 33.5045,53.5273 33.3379,51.5273 33.5,49.5 Z"/></g>
<g><path style="opacity:1" fill="#5dfb25" d="M 54.5,49.5 C 55.8333,49.5 57.1667,49.5 58.5,49.5C 59.4015,53.2407 58.0681,55.2407 54.5,55.5C 54.5,53.5 54.5,51.5 54.5,49.5 Z"/></g>
<g><path style="opacity:1" fill="#5bfd28" d="M 74.5,49.5 C 80.6223,50.2604 80.9557,51.9271 75.5,54.5C 74.5481,52.9547 74.2148,51.288 74.5,49.5 Z"/></g>
<g><path style="opacity:0.996" fill="#60f02b" d="M 116.5,49.5 C 117.822,49.33 118.989,49.6634 120,50.5C 120.273,52.1012 120.773,53.6012 121.5,55C 120.258,55.3114 119.258,54.8114 118.5,53.5C 117.808,54.0253 117.308,54.6919 117,55.5C 116.505,53.5273 116.338,51.5273 116.5,49.5 Z"/></g>
<g><path style="opacity:1" fill="#5bfc26" d="M 136.5,49.5 C 138.288,49.2148 139.955,49.5481 141.5,50.5C 140.273,51.5904 139.44,52.9238 139,54.5C 138.215,52.751 137.382,51.0843 136.5,49.5 Z"/></g>
<g><path style="opacity:0.957" fill="#60fb2a" d="M 96.5,49.5 C 101.197,50.8743 101.531,52.8743 97.5,55.5C 94.025,53.9158 93.6917,51.9158 96.5,49.5 Z M 96.5,51.5 C 98.337,51.6395 98.6704,52.3061 97.5,53.5C 96.7025,53.0431 96.3691,52.3764 96.5,51.5 Z"/></g>
</svg>
